<mxfile host="app.diagrams.net" agent="Mozilla/5.0 (Windows NT 10.0; Win64; x64) AppleWebKit/537.36 (KHTML, like Gecko) Chrome/134.0.0.0 Safari/537.36" version="26.1.2">
  <diagram name="第 1 页" id="ga6V-x0CJU_W-warhowu">
    <mxGraphModel dx="1247" dy="642" grid="1" gridSize="10" guides="1" tooltips="1" connect="1" arrows="1" fold="1" page="1" pageScale="1" pageWidth="1169" pageHeight="827" math="0" shadow="0">
      <root>
        <mxCell id="0" />
        <mxCell id="1" parent="0" />
        <mxCell id="g5fJ_12GCP8lyPMKL9Td-4" style="edgeStyle=orthogonalEdgeStyle;rounded=0;orthogonalLoop=1;jettySize=auto;html=1;" edge="1" parent="1" source="g5fJ_12GCP8lyPMKL9Td-2" target="g5fJ_12GCP8lyPMKL9Td-3">
          <mxGeometry relative="1" as="geometry" />
        </mxCell>
        <mxCell id="g5fJ_12GCP8lyPMKL9Td-2" value="打开微信界面" style="rounded=1;whiteSpace=wrap;html=1;" vertex="1" parent="1">
          <mxGeometry x="190" y="330" width="120" height="60" as="geometry" />
        </mxCell>
        <mxCell id="g5fJ_12GCP8lyPMKL9Td-7" style="rounded=0;orthogonalLoop=1;jettySize=auto;html=1;exitX=0.5;exitY=0;exitDx=0;exitDy=0;" edge="1" parent="1" source="g5fJ_12GCP8lyPMKL9Td-3" target="g5fJ_12GCP8lyPMKL9Td-5">
          <mxGeometry relative="1" as="geometry" />
        </mxCell>
        <mxCell id="g5fJ_12GCP8lyPMKL9Td-28" style="rounded=0;orthogonalLoop=1;jettySize=auto;html=1;entryX=0;entryY=0.5;entryDx=0;entryDy=0;" edge="1" parent="1" source="g5fJ_12GCP8lyPMKL9Td-3" target="g5fJ_12GCP8lyPMKL9Td-27">
          <mxGeometry relative="1" as="geometry" />
        </mxCell>
        <mxCell id="g5fJ_12GCP8lyPMKL9Td-43" style="edgeStyle=orthogonalEdgeStyle;rounded=0;orthogonalLoop=1;jettySize=auto;html=1;exitX=0.5;exitY=1;exitDx=0;exitDy=0;entryX=0;entryY=0.5;entryDx=0;entryDy=0;" edge="1" parent="1" source="g5fJ_12GCP8lyPMKL9Td-3" target="g5fJ_12GCP8lyPMKL9Td-42">
          <mxGeometry relative="1" as="geometry" />
        </mxCell>
        <mxCell id="g5fJ_12GCP8lyPMKL9Td-56" style="rounded=0;orthogonalLoop=1;jettySize=auto;html=1;entryX=0;entryY=0.5;entryDx=0;entryDy=0;" edge="1" parent="1" source="g5fJ_12GCP8lyPMKL9Td-3" target="g5fJ_12GCP8lyPMKL9Td-55">
          <mxGeometry relative="1" as="geometry">
            <Array as="points">
              <mxPoint x="510" y="890" />
            </Array>
          </mxGeometry>
        </mxCell>
        <mxCell id="g5fJ_12GCP8lyPMKL9Td-66" style="edgeStyle=orthogonalEdgeStyle;rounded=0;orthogonalLoop=1;jettySize=auto;html=1;entryX=0;entryY=0.5;entryDx=0;entryDy=0;" edge="1" parent="1" source="g5fJ_12GCP8lyPMKL9Td-3" target="g5fJ_12GCP8lyPMKL9Td-65">
          <mxGeometry relative="1" as="geometry">
            <Array as="points">
              <mxPoint x="510" y="1100" />
            </Array>
          </mxGeometry>
        </mxCell>
        <mxCell id="g5fJ_12GCP8lyPMKL9Td-3" value="获取微信授权" style="rounded=1;whiteSpace=wrap;html=1;fillColor=#ffe6cc;strokeColor=#d79b00;" vertex="1" parent="1">
          <mxGeometry x="450" y="330" width="120" height="60" as="geometry" />
        </mxCell>
        <mxCell id="g5fJ_12GCP8lyPMKL9Td-5" value="用户表" style="strokeWidth=2;html=1;shape=mxgraph.flowchart.database;whiteSpace=wrap;" vertex="1" parent="1">
          <mxGeometry x="480" y="150" width="60" height="60" as="geometry" />
        </mxCell>
        <mxCell id="g5fJ_12GCP8lyPMKL9Td-6" value="open_id" style="text;html=1;align=center;verticalAlign=middle;whiteSpace=wrap;rounded=0;" vertex="1" parent="1">
          <mxGeometry x="550" y="165" width="60" height="30" as="geometry" />
        </mxCell>
        <mxCell id="g5fJ_12GCP8lyPMKL9Td-23" style="rounded=0;orthogonalLoop=1;jettySize=auto;html=1;" edge="1" parent="1" source="g5fJ_12GCP8lyPMKL9Td-21" target="g5fJ_12GCP8lyPMKL9Td-22">
          <mxGeometry relative="1" as="geometry" />
        </mxCell>
        <mxCell id="g5fJ_12GCP8lyPMKL9Td-21" value="消息表" style="strokeWidth=2;html=1;shape=mxgraph.flowchart.database;whiteSpace=wrap;" vertex="1" parent="1">
          <mxGeometry x="1260" y="730" width="60" height="60" as="geometry" />
        </mxCell>
        <mxCell id="g5fJ_12GCP8lyPMKL9Td-22" value="打标签" style="strokeWidth=2;html=1;shape=mxgraph.flowchart.database;whiteSpace=wrap;" vertex="1" parent="1">
          <mxGeometry x="1360" y="730" width="60" height="60" as="geometry" />
        </mxCell>
        <mxCell id="g5fJ_12GCP8lyPMKL9Td-31" style="rounded=0;orthogonalLoop=1;jettySize=auto;html=1;exitX=1;exitY=0.5;exitDx=0;exitDy=0;entryX=0;entryY=0.5;entryDx=0;entryDy=0;" edge="1" parent="1" source="g5fJ_12GCP8lyPMKL9Td-27" target="g5fJ_12GCP8lyPMKL9Td-29">
          <mxGeometry relative="1" as="geometry" />
        </mxCell>
        <mxCell id="g5fJ_12GCP8lyPMKL9Td-33" style="rounded=0;orthogonalLoop=1;jettySize=auto;html=1;entryX=0;entryY=0.5;entryDx=0;entryDy=0;" edge="1" parent="1" source="g5fJ_12GCP8lyPMKL9Td-27" target="g5fJ_12GCP8lyPMKL9Td-30">
          <mxGeometry relative="1" as="geometry" />
        </mxCell>
        <mxCell id="g5fJ_12GCP8lyPMKL9Td-27" value="主页" style="rounded=1;whiteSpace=wrap;html=1;" vertex="1" parent="1">
          <mxGeometry x="670" y="330" width="120" height="60" as="geometry" />
        </mxCell>
        <mxCell id="g5fJ_12GCP8lyPMKL9Td-39" value="" style="edgeStyle=orthogonalEdgeStyle;rounded=0;orthogonalLoop=1;jettySize=auto;html=1;" edge="1" parent="1" source="g5fJ_12GCP8lyPMKL9Td-29" target="g5fJ_12GCP8lyPMKL9Td-38">
          <mxGeometry relative="1" as="geometry" />
        </mxCell>
        <mxCell id="g5fJ_12GCP8lyPMKL9Td-29" value="查询未发送信息（3条 ）" style="rounded=1;whiteSpace=wrap;html=1;fillColor=#ffe6cc;strokeColor=#d79b00;" vertex="1" parent="1">
          <mxGeometry x="870" y="250" width="120" height="60" as="geometry" />
        </mxCell>
        <mxCell id="g5fJ_12GCP8lyPMKL9Td-41" value="" style="edgeStyle=orthogonalEdgeStyle;rounded=0;orthogonalLoop=1;jettySize=auto;html=1;" edge="1" parent="1" source="g5fJ_12GCP8lyPMKL9Td-30" target="g5fJ_12GCP8lyPMKL9Td-40">
          <mxGeometry relative="1" as="geometry" />
        </mxCell>
        <mxCell id="g5fJ_12GCP8lyPMKL9Td-30" value="查询已发送信息" style="rounded=1;whiteSpace=wrap;html=1;fillColor=#ffe6cc;strokeColor=#d79b00;" vertex="1" parent="1">
          <mxGeometry x="870" y="400" width="120" height="60" as="geometry" />
        </mxCell>
        <mxCell id="g5fJ_12GCP8lyPMKL9Td-34" value="标题" style="ellipse;whiteSpace=wrap;html=1;" vertex="1" parent="1">
          <mxGeometry x="889.5" y="160" width="81" height="40" as="geometry" />
        </mxCell>
        <mxCell id="g5fJ_12GCP8lyPMKL9Td-35" value="状态：几天后发送" style="ellipse;whiteSpace=wrap;html=1;" vertex="1" parent="1">
          <mxGeometry x="1000" y="160" width="81" height="40" as="geometry" />
        </mxCell>
        <mxCell id="g5fJ_12GCP8lyPMKL9Td-36" value="内容，最多多少个字符，然后截断" style="ellipse;whiteSpace=wrap;html=1;" vertex="1" parent="1">
          <mxGeometry x="1100" y="160" width="100" height="50" as="geometry" />
        </mxCell>
        <mxCell id="g5fJ_12GCP8lyPMKL9Td-37" value="通知方式" style="ellipse;whiteSpace=wrap;html=1;" vertex="1" parent="1">
          <mxGeometry x="1220" y="165" width="81" height="40" as="geometry" />
        </mxCell>
        <mxCell id="g5fJ_12GCP8lyPMKL9Td-38" value="分页查询全部" style="whiteSpace=wrap;html=1;rounded=1;fillColor=#ffe6cc;strokeColor=#d79b00;" vertex="1" parent="1">
          <mxGeometry x="1070" y="250" width="120" height="60" as="geometry" />
        </mxCell>
        <mxCell id="g5fJ_12GCP8lyPMKL9Td-40" value="分页查询全部" style="whiteSpace=wrap;html=1;rounded=1;fillColor=#ffe6cc;strokeColor=#d79b00;" vertex="1" parent="1">
          <mxGeometry x="1060" y="400" width="120" height="60" as="geometry" />
        </mxCell>
        <mxCell id="g5fJ_12GCP8lyPMKL9Td-45" value="" style="rounded=0;orthogonalLoop=1;jettySize=auto;html=1;" edge="1" parent="1" source="g5fJ_12GCP8lyPMKL9Td-42" target="g5fJ_12GCP8lyPMKL9Td-44">
          <mxGeometry relative="1" as="geometry" />
        </mxCell>
        <mxCell id="g5fJ_12GCP8lyPMKL9Td-48" style="rounded=0;orthogonalLoop=1;jettySize=auto;html=1;" edge="1" parent="1" source="g5fJ_12GCP8lyPMKL9Td-42" target="g5fJ_12GCP8lyPMKL9Td-46">
          <mxGeometry relative="1" as="geometry" />
        </mxCell>
        <mxCell id="g5fJ_12GCP8lyPMKL9Td-49" style="rounded=0;orthogonalLoop=1;jettySize=auto;html=1;entryX=0;entryY=0.5;entryDx=0;entryDy=0;" edge="1" parent="1" source="g5fJ_12GCP8lyPMKL9Td-42" target="g5fJ_12GCP8lyPMKL9Td-47">
          <mxGeometry relative="1" as="geometry" />
        </mxCell>
        <mxCell id="g5fJ_12GCP8lyPMKL9Td-42" value="我的胶囊" style="rounded=1;whiteSpace=wrap;html=1;" vertex="1" parent="1">
          <mxGeometry x="670" y="620" width="120" height="60" as="geometry" />
        </mxCell>
        <mxCell id="g5fJ_12GCP8lyPMKL9Td-44" value="待发送列表-分页" style="whiteSpace=wrap;html=1;rounded=1;fillColor=#ffe6cc;strokeColor=#d79b00;" vertex="1" parent="1">
          <mxGeometry x="889.5" y="540" width="120" height="60" as="geometry" />
        </mxCell>
        <mxCell id="g5fJ_12GCP8lyPMKL9Td-46" value="已发送-分页" style="whiteSpace=wrap;html=1;rounded=1;fillColor=#ffe6cc;strokeColor=#d79b00;" vertex="1" parent="1">
          <mxGeometry x="889.5" y="630" width="120" height="60" as="geometry" />
        </mxCell>
        <mxCell id="g5fJ_12GCP8lyPMKL9Td-47" value="草稿-查询全部" style="whiteSpace=wrap;html=1;rounded=1;fillColor=#ffe6cc;strokeColor=#d79b00;" vertex="1" parent="1">
          <mxGeometry x="889.5" y="720" width="120" height="60" as="geometry" />
        </mxCell>
        <mxCell id="g5fJ_12GCP8lyPMKL9Td-50" value="标题" style="ellipse;whiteSpace=wrap;html=1;" vertex="1" parent="1">
          <mxGeometry x="840" y="860" width="61.5" height="40" as="geometry" />
        </mxCell>
        <mxCell id="g5fJ_12GCP8lyPMKL9Td-51" value="状态：几天后发送" style="ellipse;whiteSpace=wrap;html=1;" vertex="1" parent="1">
          <mxGeometry x="1149" y="550" width="81" height="40" as="geometry" />
        </mxCell>
        <mxCell id="g5fJ_12GCP8lyPMKL9Td-52" value="内容，最多多少个字符，然后截断" style="ellipse;whiteSpace=wrap;html=1;" vertex="1" parent="1">
          <mxGeometry x="1430" y="540" width="100" height="50" as="geometry" />
        </mxCell>
        <mxCell id="g5fJ_12GCP8lyPMKL9Td-53" value="tag 标签" style="ellipse;whiteSpace=wrap;html=1;" vertex="1" parent="1">
          <mxGeometry x="1330" y="545" width="81" height="40" as="geometry" />
        </mxCell>
        <mxCell id="g5fJ_12GCP8lyPMKL9Td-54" value="通知方式" style="ellipse;whiteSpace=wrap;html=1;" vertex="1" parent="1">
          <mxGeometry x="1240" y="545" width="81" height="40" as="geometry" />
        </mxCell>
        <mxCell id="g5fJ_12GCP8lyPMKL9Td-55" value="创建" style="rounded=1;whiteSpace=wrap;html=1;" vertex="1" parent="1">
          <mxGeometry x="670" y="860" width="120" height="60" as="geometry" />
        </mxCell>
        <mxCell id="g5fJ_12GCP8lyPMKL9Td-57" value="标题" style="ellipse;whiteSpace=wrap;html=1;" vertex="1" parent="1">
          <mxGeometry x="1040" y="550" width="81" height="40" as="geometry" />
        </mxCell>
        <mxCell id="g5fJ_12GCP8lyPMKL9Td-58" value="内容" style="ellipse;whiteSpace=wrap;html=1;" vertex="1" parent="1">
          <mxGeometry x="921" y="860" width="81" height="40" as="geometry" />
        </mxCell>
        <mxCell id="g5fJ_12GCP8lyPMKL9Td-59" value="预计发送时间" style="ellipse;whiteSpace=wrap;html=1;" vertex="1" parent="1">
          <mxGeometry x="1010.5" y="860" width="81" height="40" as="geometry" />
        </mxCell>
        <mxCell id="g5fJ_12GCP8lyPMKL9Td-60" value="标签" style="ellipse;whiteSpace=wrap;html=1;" vertex="1" parent="1">
          <mxGeometry x="1099.5" y="860" width="81" height="40" as="geometry" />
        </mxCell>
        <mxCell id="g5fJ_12GCP8lyPMKL9Td-63" value="" style="edgeStyle=orthogonalEdgeStyle;rounded=0;orthogonalLoop=1;jettySize=auto;html=1;" edge="1" parent="1" source="g5fJ_12GCP8lyPMKL9Td-61" target="g5fJ_12GCP8lyPMKL9Td-62">
          <mxGeometry relative="1" as="geometry" />
        </mxCell>
        <mxCell id="g5fJ_12GCP8lyPMKL9Td-61" value="选择通知方式" style="ellipse;whiteSpace=wrap;html=1;" vertex="1" parent="1">
          <mxGeometry x="1200.5" y="860" width="81" height="40" as="geometry" />
        </mxCell>
        <mxCell id="g5fJ_12GCP8lyPMKL9Td-62" value="手机号设置、 邮箱设置， 可以自定义，默认从个人中心复制过来" style="whiteSpace=wrap;html=1;" vertex="1" parent="1">
          <mxGeometry x="1390" y="850" width="119" height="60" as="geometry" />
        </mxCell>
        <mxCell id="g5fJ_12GCP8lyPMKL9Td-64" value="手机号设置&lt;div&gt;邮箱设置&lt;/div&gt;" style="whiteSpace=wrap;html=1;" vertex="1" parent="1">
          <mxGeometry x="1149" y="1000" width="119" height="60" as="geometry" />
        </mxCell>
        <mxCell id="g5fJ_12GCP8lyPMKL9Td-71" style="edgeStyle=orthogonalEdgeStyle;rounded=0;orthogonalLoop=1;jettySize=auto;html=1;entryX=0;entryY=0.5;entryDx=0;entryDy=0;" edge="1" parent="1" source="g5fJ_12GCP8lyPMKL9Td-65" target="g5fJ_12GCP8lyPMKL9Td-69">
          <mxGeometry relative="1" as="geometry">
            <Array as="points">
              <mxPoint x="730" y="1320" />
            </Array>
          </mxGeometry>
        </mxCell>
        <mxCell id="g5fJ_12GCP8lyPMKL9Td-73" style="edgeStyle=orthogonalEdgeStyle;rounded=0;orthogonalLoop=1;jettySize=auto;html=1;entryX=0;entryY=0.5;entryDx=0;entryDy=0;" edge="1" parent="1" source="g5fJ_12GCP8lyPMKL9Td-65" target="g5fJ_12GCP8lyPMKL9Td-72">
          <mxGeometry relative="1" as="geometry" />
        </mxCell>
        <mxCell id="g5fJ_12GCP8lyPMKL9Td-76" style="edgeStyle=orthogonalEdgeStyle;rounded=0;orthogonalLoop=1;jettySize=auto;html=1;entryX=0;entryY=0.5;entryDx=0;entryDy=0;" edge="1" parent="1" source="g5fJ_12GCP8lyPMKL9Td-65" target="g5fJ_12GCP8lyPMKL9Td-75">
          <mxGeometry relative="1" as="geometry" />
        </mxCell>
        <mxCell id="g5fJ_12GCP8lyPMKL9Td-78" style="edgeStyle=orthogonalEdgeStyle;rounded=0;orthogonalLoop=1;jettySize=auto;html=1;entryX=0;entryY=0.5;entryDx=0;entryDy=0;" edge="1" parent="1" source="g5fJ_12GCP8lyPMKL9Td-65" target="g5fJ_12GCP8lyPMKL9Td-77">
          <mxGeometry relative="1" as="geometry" />
        </mxCell>
        <mxCell id="g5fJ_12GCP8lyPMKL9Td-65" value="个人中心" style="rounded=1;whiteSpace=wrap;html=1;" vertex="1" parent="1">
          <mxGeometry x="660" y="1070" width="120" height="60" as="geometry" />
        </mxCell>
        <mxCell id="g5fJ_12GCP8lyPMKL9Td-68" value="帮助、反馈" style="whiteSpace=wrap;html=1;" vertex="1" parent="1">
          <mxGeometry x="951" y="1140" width="119" height="60" as="geometry" />
        </mxCell>
        <mxCell id="g5fJ_12GCP8lyPMKL9Td-69" value="关于未来信息" style="whiteSpace=wrap;html=1;" vertex="1" parent="1">
          <mxGeometry x="951" y="1290" width="119" height="60" as="geometry" />
        </mxCell>
        <mxCell id="g5fJ_12GCP8lyPMKL9Td-70" style="edgeStyle=orthogonalEdgeStyle;rounded=0;orthogonalLoop=1;jettySize=auto;html=1;entryX=0.016;entryY=0.619;entryDx=0;entryDy=0;entryPerimeter=0;" edge="1" parent="1" source="g5fJ_12GCP8lyPMKL9Td-65" target="g5fJ_12GCP8lyPMKL9Td-68">
          <mxGeometry relative="1" as="geometry">
            <Array as="points">
              <mxPoint x="810" y="1100" />
              <mxPoint x="810" y="1177" />
            </Array>
          </mxGeometry>
        </mxCell>
        <mxCell id="g5fJ_12GCP8lyPMKL9Td-74" style="edgeStyle=orthogonalEdgeStyle;rounded=0;orthogonalLoop=1;jettySize=auto;html=1;entryX=0;entryY=0.5;entryDx=0;entryDy=0;" edge="1" parent="1" source="g5fJ_12GCP8lyPMKL9Td-72" target="g5fJ_12GCP8lyPMKL9Td-64">
          <mxGeometry relative="1" as="geometry" />
        </mxCell>
        <mxCell id="g5fJ_12GCP8lyPMKL9Td-72" value="个人资料" style="whiteSpace=wrap;html=1;" vertex="1" parent="1">
          <mxGeometry x="950.5" y="1000" width="119" height="60" as="geometry" />
        </mxCell>
        <mxCell id="g5fJ_12GCP8lyPMKL9Td-75" value="重要日期管理" style="whiteSpace=wrap;html=1;" vertex="1" parent="1">
          <mxGeometry x="950.5" y="1220" width="119" height="60" as="geometry" />
        </mxCell>
        <mxCell id="g5fJ_12GCP8lyPMKL9Td-77" value="深色模式" style="whiteSpace=wrap;html=1;" vertex="1" parent="1">
          <mxGeometry x="950.5" y="1380" width="119" height="60" as="geometry" />
        </mxCell>
      </root>
    </mxGraphModel>
  </diagram>
</mxfile>
